HIERARCHY
ROOT Hips
{
  OFFSET 0 0 0
  CHANNELS 6 Xposition Yposition Zposition Zrotation Xrotation Yrotation
  JOINT RightUpLeg
  {
    OFFSET -30.9458 -8.66707 0
    CHANNELS 3 Zrotation Xrotation Yrotation
    JOINT RightLeg
    {
      OFFSET 0 -30.4227 0
      CHANNELS 3 Zrotation Xrotation Yrotation
      JOINT RightFoot
      {
        OFFSET 0.253549 -30.0923 -1.46059
        CHANNELS 3 Zrotation Xrotation Yrotation
        JOINT RightToeBase
        {
          OFFSET -8.17562e-005 -4.43172 20.4991
          CHANNELS 3 Zrotation Xrotation Yrotation
          End Site
          {
            OFFSET -0.0800001 -0.137448 10.7798
          }
        }
      }
    }
  }
  JOINT Spine
  {
    OFFSET 0 60.8905 0
    CHANNELS 3 Zrotation Xrotation Yrotation
    JOINT Spine1
    {
      OFFSET 0 60.6575 0.127663
      CHANNELS 3 Zrotation Xrotation Yrotation
      JOINT Neck
      {
        OFFSET 0 30.7342 20.0114
        CHANNELS 3 Zrotation Xrotation Yrotation
        JOINT Head
        {
          OFFSET 0 12.7742 2.51395
          CHANNELS 3 Zrotation Xrotation Yrotation
          End Site
          {
            OFFSET 0 0 0
          }
        }
      }
      JOINT LeftShoulder
      {
        OFFSET 40.9901 -0.362253 -0.22
        CHANNELS 3 Zrotation Xrotation Yrotation
        JOINT LeftArm
        {
          OFFSET 30.2827 8.00339 10.3221
          CHANNELS 3 Zrotation Xrotation Yrotation
          JOINT LeftForeArm
          {
            OFFSET 32.7669 0 5
            CHANNELS 3 Zrotation Xrotation Yrotation
            JOINT LeftHand
            {
              OFFSET 27.5643 -5 20
              CHANNELS 3 Zrotation Xrotation Yrotation
              End Site
              {
                OFFSET 16.7443 -20 10
              }
            }
          }
        }
      }
      JOINT RightShoulder
      {
        OFFSET -40.9901 -0.362253 5.22001
        CHANNELS 3 Zrotation Xrotation Yrotation
        JOINT RightArm
        {
          OFFSET -30.2827 -0.0033774 15.3221
          CHANNELS 3 Zrotation Xrotation Yrotation
          JOINT RightForeArm
          {
            OFFSET -32.8971 -10 5
            CHANNELS 3 Zrotation Xrotation Yrotation
            JOINT RightHand
            {
              OFFSET -27.4921 0 10
              CHANNELS 3 Zrotation Xrotation Yrotation
              End Site
              {
                OFFSET -16.6312 -10 10
              }
            }
          }
        }
      }
    }
  }
  JOINT LeftUpLeg
  {
    OFFSET 30.9458 -8.66707 0
    CHANNELS 3 Zrotation Xrotation Yrotation
    JOINT LeftLeg
    {
      OFFSET 0 -30.4227 0
      CHANNELS 3 Zrotation Xrotation Yrotation
      JOINT LeftFoot
      {
        OFFSET -0.253549 -30.0923 -1.46059
        CHANNELS 3 Zrotation Xrotation Yrotation
        JOINT LeftToeBase
        {
          OFFSET 0 -10.4317 20.4991
          CHANNELS 3 Zrotation Xrotation Yrotation
          End Site
          {
            OFFSET -5.08 -0.0474481 10.7798
          }
        }
      }
    }
  }
}
MOTION
Frames:	7
Frame Time:	0.00833333
5.59894 -50.6306 14.0044 0.141766 0.111 -4.554 0.634931 -13.7373 6.0573 6.20475 36.1195 -14.2121 7.09127 -24.0446 1.06173 3.14258 12.6373 -25.9106 5.87942 0.910033 1.58457 -4.11227 -7.20303 1.97067 -13.3266 26.0642 5.68871 11.8446 -14.2339 -2.25278 -14.4348 -1.22473 9.95246 -22.8169 -53.4816 -46.6727 8.28013 59.875 1.34068 9.51114 4.28066 -4.90682 -10.5694 -0.239525 -19.5914 34.5209 -42.6231 43.7193 -6.02396 61.4965 3.67154 -3.91855 4.80898 5.98228 -2.11131 -16.5326 -3.14826 -13.0481 39.8758 10.567 -7.71681 -37.6217 -2.30183 -11.1901 13.0911 75.9155 
6.51892 305.005 -18.9388 0.147941 -0.659491 -92.2733 -1.7107 -15.0434 5.99628 6.42282 37.3501 -14.2368 7.05727 -23.7596 1.04005 3.17831 12.6988 -26.078 5.97692 0.94038 1.61113 -4.09954 -7.15013 1.99694 -13.402 26.1874 5.68997 11.9159 -14.1591 -2.32098 -14.5015 -1.22482 9.9289 -22.8002 -53.496 -46.5579 8.29756 59.9441 1.34347 9.51135 4.28066 -4.90684 -10.5239 -0.239608 -19.5354 34.4872 -42.6164 43.6243 -6.02055 61.4691 3.66729 -3.91855 4.80898 5.98228 -1.96506 -16.6367 -3.02734 -13.0828 39.9116 10.6416 -7.73371 -37.3636 -2.28756 -11.1813 13.0969 75.8526 
6.58634 305.063 -18.9195 0.142879 -0.564999 -92.334 -1.68765 -15.13 5.91623 6.51907 37.3531 -14.0734 7.00109 -23.4573 1.01391 3.20385 12.6742 -26.2978 6.06392 0.957975 1.63665 -4.05829 -7.05884 2.0196 -13.4423 26.3137 5.6701 11.9213 -14.1106 -2.38369 -14.5528 -1.22114 9.90103 -22.7695 -53.5158 -46.4035 8.30764 60.0224 1.34665 9.47883 4.28063 -4.89208 -10.4938 -0.23973 -19.4531 34.5077 -42.6549 43.5656 -6.06757 61.5112 3.70819 -3.92577 4.80898 5.98228 -1.81047 -16.7156 -2.89506 -13.1226 39.9689 10.633 -7.68318 -37.2749 -2.26561 -11.3459 13.306 75.9483 
6.66194 305.117 -18.8927 0.129582 -0.477877 -92.4025 -1.69372 -15.2083 5.82107 6.61164 37.3484 -13.9743 7.02159 -23.0304 0.993626 3.13528 12.41 -26.1944 6.1787 1.01715 1.66597 -4.04884 -6.99401 2.05082 -13.5356 26.4974 5.68341 11.9599 -14.1531 -2.44002 -14.6051 -1.21358 9.85548 -22.7799 -53.5695 -46.2908 8.36322 60.1915 1.35359 9.5046 4.28978 -4.90763 -10.5137 -0.241873 -19.3786 34.4802 -42.6522 43.4284 -6.06123 61.5365 3.70434 -3.90851 4.80898 5.98228 -1.6831 -16.7123 -2.79708 -13.1126 39.8639 10.7607 -7.76448 -36.8455 -2.25787 -11.1068 13.0454 75.6615 
6.74505 305.168 -18.8656 0.127711 -0.392289 -92.4745 -1.69296 -15.3367 5.72532 6.70565 37.3879 -13.8522 6.94353 -22.8661 0.972227 3.2031 12.6965 -26.2594 6.26903 1.05378 1.69445 -4.01714 -6.9003 2.07881 -13.5773 26.6564 5.67333 11.9471 -14.1897 -2.48591 -14.6228 -1.20557 9.81568 -22.7886 -53.6357 -46.1395 8.42987 60.3885 1.36177 9.51208 4.33658 -4.95739 -10.462 -0.249005 -19.2993 34.451 -42.7103 43.3716 -6.10788 61.6231 3.7473 -3.91113 4.81117 5.97985 -1.5555 -16.7573 -2.6862 -13.131 39.8394 10.7515 -7.69947 -36.5814 -2.21877 -11.0426 12.971 75.5982 
6.83308 305.214 -18.8394 0.122359 -0.301835 -92.5374 -1.6876 -15.4246 5.63682 6.79505 37.3883 -13.7501 6.91664 -22.5794 0.952845 3.19222 12.6597 -26.2358 6.36939 1.086 1.7184 -3.99972 -6.78982 2.10413 -13.5094 26.8938 5.61565 11.8229 -14.3238 -2.51029 -14.6324 -1.1981 9.78023 -22.7691 -53.6764 -45.9825 8.46814 60.4934 1.36242 9.51939 4.34124 -4.96404 -10.3932 -0.258452 -19.2141 34.3882 -42.7813 43.2925 -6.15521 61.7126 3.79098 -3.93879 4.83027 5.99579 -1.41435 -16.7932 -2.57326 -13.145 39.8053 10.8955 -7.83939 -36.5969 -2.26269 -11.1821 13.2077 75.4824 
6.92914 305.251 -18.8115 0.123082 -0.215028 -92.6071 -1.68286 -15.5173 5.55164 6.87753 37.3819 -13.6188 6.87446 -22.2924 0.930577 3.17511 12.5771 -26.2345 6.47788 1.14608 1.74042 -3.99223 -6.70537 2.12937 -13.7729 26.9593 5.74393 12.0552 -14.321 -2.5485 -14.671 -1.19402 9.75342 -22.5954 -53.664 -45.6654 8.46323 60.2812 1.25531 9.49198 4.23443 -4.8476 -10.369 -0.261563 -19.1472 34.3057 -42.8055 43.1928 -6.14905 61.7458 3.78774 -3.94183 4.82374 5.98797 -1.27894 -16.8513 -2.45424 -13.1727 39.788 10.9403 -7.85952 -36.56 -2.26655 -11.2656 13.3281 75.4855 
